<svg   viewBox="0 0 496 496" width="100px" height="" xmlns="http://www.w3.org/2000/svg"><path fill="#ffffff" d="m488 448h-16v-192.207031c9.65625-7.3125 16-18.785157 16-31.792969 0-19.3125-13.769531-35.472656-32-39.191406v-176.808594c0-4.425781-3.585938-8-8-8h-400c-4.414062 0-8 3.574219-8 8v176.808594c-18.230469 3.71875-32 19.878906-32 39.191406 0 13.015625 6.34375 24.488281 16 31.792969v192.207031h-16c-4.414062 0-8 3.574219-8 8v32c0 4.425781 3.585938 8 8 8h80c4.414062 0 8-3.574219 8-8v-32c0-4.425781-3.585938-8-8-8h-16v-17.960938c5.105469-1.734374 9.824219-4.542968 13.664062-8.382812 3.640626-3.648438 8.488282-5.65625 13.648438-5.65625h9.375c5.160156 0 10.007812 2.007812 13.65625 5.65625 6.664062 6.671875 15.527344 10.34375 24.96875 10.34375h9.375c9.441406 0 18.304688-3.671875 24.976562-10.34375 3.640626-3.648438 8.488282-5.65625 13.648438-5.65625h9.375c5.160156 0 10.007812 2.007812 13.65625 5.65625 1.71875 1.71875 3.640625 3.191406 5.65625 4.511719v21.832031h-16c-4.414062 0-8 3.574219-8 8v32c0 4.425781 3.585938 8 8 8h80c4.414062 0 8-3.574219 8-8v-32c0-4.425781-3.585938-8-8-8h-16v-21.832031c2.023438-1.320313 3.9375-2.792969 5.664062-4.511719 3.640626-3.648438 8.488282-5.65625 13.648438-5.65625h9.375c5.160156 0 10.007812 2.007812 13.65625 5.65625 6.664062 6.671875 15.527344 10.34375 24.96875 10.34375h9.375c9.441406 0 18.304688-3.671875 24.976562-10.34375 3.640626-3.648438 8.488282-5.65625 13.648438-5.65625h9.375c5.160156 0 10.007812 2.007812 13.65625 5.65625 3.832031 3.832031 8.550781 6.648438 13.65625 8.382812v17.960938h-16c-4.414062 0-8 3.574219-8 8v32c0 4.425781 3.585938 8 8 8h80c4.414062 0 8-3.574219 8-8v-32c0-4.425781-3.585938-8-8-8zm-16-224c0 13.230469-10.769531 24-24 24s-24-10.769531-24-24 10.769531-24 24-24 24 10.769531 24 24zm-63.574219-4.183594-15.5625 12.441406c-12.6875 10.15625-28.625 15.742188-44.863281 15.742188s-32.175781-5.585938-44.863281-15.742188l-15.5625-12.441406c-2.125-20.074218-18.949219-35.816406-39.574219-35.816406s-37.449219 15.742188-39.574219 35.816406l-15.5625 12.441406c-12.6875 10.15625-28.625 15.742188-44.863281 15.742188s-32.175781-5.585938-44.863281-15.742188l-15.5625-12.441406c-1.839844-17.402344-14.695313-31.570312-31.574219-35.007812v-88.808594h384v88.808594c-16.878906 3.4375-29.734375 17.605468-31.574219 35.007812zm-160.425781 28.183594c-13.230469 0-24-10.769531-24-24s10.769531-24 24-24 24 10.769531 24 24-10.769531 24-24 24zm128-168v-64h32v64zm-16 0h-32v-64h32zm-48 0h-32v-64h32zm-48 0h-32v-64h32zm-48 0h-32v-64h32zm-48 0h-32v-64h32zm-48 0h-32v-64h32zm320 0h-16v-64h16zm-368-64v64h-16v-64zm-24 184c13.230469 0 24 10.769531 24 24s-10.769531 24-24 24-24-10.769531-24-24 10.769531-24 24-24zm32 280h-64v-16h64zm-40-32v-184.808594c2.585938.527344 5.265625.808594 8 .808594s5.414062-.28125 8-.808594v184.808594zm164.6875-48h-9.375c-9.441406 0-18.304688 3.671875-24.976562 10.34375-3.640626 3.648438-8.488282 5.65625-13.648438 5.65625h-9.375c-5.160156 0-10.007812-2.007812-13.65625-5.65625-6.664062-6.671875-15.527344-10.34375-24.96875-10.34375h-9.375c-9.441406 0-18.304688 3.671875-24.96875 10.34375-.726562.726562-1.511719 1.382812-2.34375 1.976562v-156.527343c5.878906-4.449219 10.496094-10.410157 13.207031-17.386719l7.9375 6.347656c15.511719 12.414063 34.992188 19.246094 54.855469 19.246094s39.34375-6.832031 54.855469-19.238281l7.9375-6.347657c2.710937 6.976563 7.328125 12.9375 13.207031 17.386719v149.96875c-5.695312-3.738281-12.34375-5.769531-19.3125-5.769531zm75.3125 80h-64v-16h64zm-40-32v-184.808594c2.585938.527344 5.265625.808594 8 .808594s5.414062-.28125 8-.808594v184.808594zm181.664062-37.65625c-6.671874-6.671875-15.535156-10.34375-24.976562-10.34375h-9.375c-9.441406 0-18.304688 3.671875-24.976562 10.34375-3.640626 3.648438-8.488282 5.65625-13.648438 5.65625h-9.375c-5.160156 0-10.007812-2.007812-13.65625-5.65625-6.664062-6.671875-15.527344-10.34375-24.96875-10.34375h-9.375c-6.976562 0-13.625 2.03125-19.3125 5.769531v-149.976562c5.878906-4.449219 10.496094-10.410157 13.207031-17.386719l7.9375 6.347656c15.511719 12.414063 34.992188 19.246094 54.855469 19.246094s39.34375-6.832031 54.855469-19.238281l7.9375-6.347657c2.710937 6.976563 7.328125 12.9375 13.207031 17.386719v156.519531c-.824219-.601562-1.617188-1.25-2.335938-1.976562zm18.335938-147.152344c2.585938.527344 5.265625.808594 8 .808594s5.414062-.28125 8-.808594v184.808594h-16zm40 216.808594h-64v-16h64zm0 0"/></svg>